<svg xmlns="http://www.w3.org/2000/svg" width="1200" height="400" viewBox="0 0 1200 400">
  <defs>
    <linearGradient id="kingGrad" x1="0%" y1="0%" x2="0%" y2="100%">
      <stop offset="0%"   stop-color="#fef3c7"/>
      <stop offset="45%"  stop-color="#f5e040"/>
      <stop offset="100%" stop-color="#b8900a"/>
    </linearGradient>
    <radialGradient id="bgRadial" cx="50%" cy="55%" r="52%">
      <stop offset="0%"   stop-color="#141108" stop-opacity="1"/>
      <stop offset="100%" stop-color="#080a0f" stop-opacity="1"/>
    </radialGradient>
    <radialGradient id="kingHalo" cx="50%" cy="50%" r="50%">
      <stop offset="0%"   stop-color="#f5e040" stop-opacity="0.13"/>
      <stop offset="100%" stop-color="#f5e040" stop-opacity="0"/>
    </radialGradient>
    <filter id="glow" x="-40%" y="-40%" width="180%" height="180%">
      <feGaussianBlur stdDeviation="3.5" result="blur"/>
      <feMerge><feMergeNode in="blur"/><feMergeNode in="SourceGraphic"/></feMerge>
    </filter>
    <filter id="bigGlow" x="-120%" y="-120%" width="340%" height="340%">
      <feGaussianBlur stdDeviation="22" result="blur"/>
      <feMerge><feMergeNode in="blur"/><feMergeNode in="SourceGraphic"/></feMerge>
    </filter>
  </defs>

  <!-- Background -->
  <rect width="1200" height="400" fill="#080a0f"/>
  <rect width="1200" height="400" fill="url(#bgRadial)"/>

  <!-- Ambient king glow -->
  <ellipse cx="600" cy="210" rx="210" ry="170" fill="url(#kingHalo)"/>
  <ellipse cx="600" cy="210" rx="340" ry="240" fill="#f5e040" fill-opacity="0.025"/>

  <!-- Border lines -->
  <line x1="0" y1="1"   x2="1200" y2="1"   stroke="#f5e040" stroke-opacity="0.12" stroke-width="1"/>
  <line x1="0" y1="399" x2="1200" y2="399" stroke="#f5e040" stroke-opacity="0.12" stroke-width="1"/>

  <!-- Horizontal rule either side of king -->
  <line x1="60"  y1="200" x2="480" y2="200" stroke="#f5e040" stroke-opacity="0.06" stroke-width="1"/>
  <line x1="720" y1="200" x2="1140" y2="200" stroke="#f5e040" stroke-opacity="0.06" stroke-width="1"/>

  <!-- ── Particles left ── -->
  <circle cx="76"  cy="175" r="1.6" fill="#f5e040" fill-opacity="0.55"/>
  <circle cx="140" cy="244" r="2.0" fill="#f5e040" fill-opacity="0.38"/>
  <circle cx="208" cy="132" r="1.2" fill="#fbbf24" fill-opacity="0.50"/>
  <circle cx="164" cy="318" r="1.5" fill="#f5e040" fill-opacity="0.32"/>
  <circle cx="288" cy="197" r="1.0" fill="#f5e040" fill-opacity="0.42"/>
  <circle cx="318" cy="284" r="1.8" fill="#fbbf24" fill-opacity="0.30"/>
  <circle cx="374" cy="155" r="1.4" fill="#f5e040" fill-opacity="0.40"/>
  <circle cx="418" cy="326" r="1.0" fill="#f5e040" fill-opacity="0.48"/>
  <circle cx="452" cy="234" r="2.2" fill="#f5e040" fill-opacity="0.22"/>
  <circle cx="108" cy="328" r="1.0" fill="#fbbf24" fill-opacity="0.38"/>
  <circle cx="228" cy="354" r="1.4" fill="#f5e040" fill-opacity="0.28"/>
  <circle cx="346" cy="74"  r="1.0" fill="#f5e040" fill-opacity="0.48"/>
  <circle cx="62"  cy="268" r="1.8" fill="#fbbf24" fill-opacity="0.28"/>
  <circle cx="398" cy="96"  r="1.3" fill="#f5e040" fill-opacity="0.38"/>
  <circle cx="468" cy="308" r="1.0" fill="#f5e040" fill-opacity="0.34"/>
  <circle cx="178" cy="76"  r="1.8" fill="#f5e040" fill-opacity="0.33"/>
  <circle cx="238" cy="296" r="1.0" fill="#fbbf24" fill-opacity="0.42"/>
  <circle cx="308" cy="372" r="1.4" fill="#f5e040" fill-opacity="0.28"/>
  <circle cx="430" cy="56"  r="1.0" fill="#f5e040" fill-opacity="0.38"/>
  <circle cx="498" cy="178" r="1.4" fill="#fbbf24" fill-opacity="0.28"/>
  <circle cx="520" cy="110" r="1.0" fill="#f5e040" fill-opacity="0.30"/>
  <circle cx="86"  cy="110" r="1.2" fill="#f5e040" fill-opacity="0.35"/>
  <circle cx="260" cy="50"  r="1.0" fill="#fbbf24" fill-opacity="0.30"/>
  <circle cx="470" cy="380" r="1.2" fill="#f5e040" fill-opacity="0.25"/>

  <!-- ── Particles right ── -->
  <circle cx="1124" cy="175" r="1.6" fill="#f5e040" fill-opacity="0.55"/>
  <circle cx="1060" cy="244" r="2.0" fill="#f5e040" fill-opacity="0.38"/>
  <circle cx="992"  cy="132" r="1.2" fill="#fbbf24" fill-opacity="0.50"/>
  <circle cx="1036" cy="318" r="1.5" fill="#f5e040" fill-opacity="0.32"/>
  <circle cx="912"  cy="197" r="1.0" fill="#f5e040" fill-opacity="0.42"/>
  <circle cx="882"  cy="284" r="1.8" fill="#fbbf24" fill-opacity="0.30"/>
  <circle cx="826"  cy="155" r="1.4" fill="#f5e040" fill-opacity="0.40"/>
  <circle cx="782"  cy="326" r="1.0" fill="#f5e040" fill-opacity="0.48"/>
  <circle cx="748"  cy="234" r="2.2" fill="#f5e040" fill-opacity="0.22"/>
  <circle cx="1092" cy="328" r="1.0" fill="#fbbf24" fill-opacity="0.38"/>
  <circle cx="972"  cy="354" r="1.4" fill="#f5e040" fill-opacity="0.28"/>
  <circle cx="854"  cy="74"  r="1.0" fill="#f5e040" fill-opacity="0.48"/>
  <circle cx="1138" cy="268" r="1.8" fill="#fbbf24" fill-opacity="0.28"/>
  <circle cx="802"  cy="96"  r="1.3" fill="#f5e040" fill-opacity="0.38"/>
  <circle cx="732"  cy="308" r="1.0" fill="#f5e040" fill-opacity="0.34"/>
  <circle cx="1022" cy="76"  r="1.8" fill="#f5e040" fill-opacity="0.33"/>
  <circle cx="962"  cy="296" r="1.0" fill="#fbbf24" fill-opacity="0.42"/>
  <circle cx="892"  cy="372" r="1.4" fill="#f5e040" fill-opacity="0.28"/>
  <circle cx="770"  cy="56"  r="1.0" fill="#f5e040" fill-opacity="0.38"/>
  <circle cx="702"  cy="178" r="1.4" fill="#fbbf24" fill-opacity="0.28"/>
  <circle cx="680"  cy="110" r="1.0" fill="#f5e040" fill-opacity="0.30"/>
  <circle cx="1114" cy="110" r="1.2" fill="#f5e040" fill-opacity="0.35"/>
  <circle cx="940"  cy="50"  r="1.0" fill="#fbbf24" fill-opacity="0.30"/>
  <circle cx="730"  cy="380" r="1.2" fill="#f5e040" fill-opacity="0.25"/>

  <!-- ── CHESS KING (centered x=600) ── -->

  <!-- Soft glow behind king -->
  <rect x="548" y="78" width="104" height="258" rx="12" fill="#f5e040" fill-opacity="0.07" filter="url(#bigGlow)"/>

  <!-- Cross — vertical bar -->
  <rect x="593" y="78" width="14" height="88" rx="5" fill="url(#kingGrad)" filter="url(#glow)"/>
  <!-- Cross — horizontal bar -->
  <rect x="561" y="99"  width="78" height="16" rx="5" fill="url(#kingGrad)" filter="url(#glow)"/>

  <!-- Crown knob -->
  <ellipse cx="600" cy="172" rx="14" ry="11" fill="url(#kingGrad)"/>

  <!-- Neck -->
  <rect x="581" y="178" width="38" height="34" rx="3" fill="url(#kingGrad)"/>

  <!-- Shoulder flare -->
  <rect x="563" y="208" width="74" height="10" rx="3" fill="url(#kingGrad)"/>

  <!-- Upper body -->
  <rect x="566" y="212" width="68" height="38" rx="3" fill="url(#kingGrad)"/>

  <!-- Waist groove -->
  <rect x="564" y="248" width="72" height="3" rx="1" fill="#9a7200" fill-opacity="0.55"/>

  <!-- Lower body -->
  <rect x="549" y="251" width="102" height="56" rx="3" fill="url(#kingGrad)"/>

  <!-- Base step -->
  <rect x="530" y="305" width="140" height="10" rx="3" fill="url(#kingGrad)"/>

  <!-- Base -->
  <rect x="520" y="312" width="160" height="24" rx="7" fill="url(#kingGrad)"/>

  <!-- Ground shadow -->
  <ellipse cx="600" cy="344" rx="90" ry="7" fill="#f5e040" fill-opacity="0.07"/>

  <!-- ── Label ── -->
  <text x="600" y="378"
    text-anchor="middle"
    font-family="Georgia, 'Times New Roman', serif"
    font-size="11"
    fill="#f5e040"
    fill-opacity="0.32"
    letter-spacing="5.5">JADEN WONG · PORTFOLIO · 2026</text>
</svg>
